<svg t="1591945637247" class="icon" viewBox="0 0 1024 1024" version="1.1" xmlns="http://www.w3.org/2000/svg" p-id="21337" width="200" height="200"><path d="M768 784.6912V128H0v768h35.328l394.6752-394.6752z" fill="#CCCCCC" p-id="21338"></path><path d="M430.0032 501.3248L35.328 896H768v-111.3088z" fill="#B5B8BA" p-id="21339"></path><path d="M706.56 733.184V189.44v0.0256h-41.7024L664.832 189.44H103.168l-0.0256 0.0256H61.44V834.56h35.328l333.2352-333.2352z" fill="#EFF2F4" p-id="21340"></path><path d="M430.0032 501.3248L96.768 834.56H706.56v-101.376z" fill="#EFF2F4" p-id="21341"></path><path d="M567.7824 366.592h78.1568v-67.1232H286.5408v67.1232h242.8928zM188.032 723.9424v-67.4048H120.6528v67.4048h51.4304zM120.6528 480.2816h67.4048v67.4048H120.6528zM120.6528 304h67.4048v67.4048H120.6528zM645.9392 658.4832v-1.0496H616.192l29.7472 24.9344z" fill="#7AC3E1" p-id="21342"></path><path d="M616.192 657.4336H286.6688v67.0976h359.2704v-42.1632zM485.0176 547.456l-55.0144-46.1312-46.1312 46.1312h3.0464z" fill="#3BAFDA" p-id="21343"></path><path d="M485.0176 547.456h162.3552V480.3072H286.5408v67.1488h97.3312l46.1312-46.1312z" fill="#7AC3E1" p-id="21344"></path><path d="M429.696 744.0384h58.2912v85.248h-58.2912z" fill="#7EAD42" p-id="21345"></path><path d="M1024 783.2832v-18.7392l-303.7184-26.5728-5.76 1.8944 134.5024 112.7424z" fill="#8CC152" p-id="21346"></path><path d="M714.5216 739.8656l-278.7584 92.0832v18.7136L739.456 896l109.568-43.392z" fill="#8CC152" p-id="21347"></path><path d="M1024 764.544l-303.7184-45.3376-20.6336 8.192 134.1696 112.4864zM699.648 727.3984l-263.8848 104.5504 303.6928 45.312 94.3616-37.376z" fill="#EFF2F4" p-id="21348"></path><path d="M1024 678.9888v-18.7392l-303.7184-26.5728-95.0016 31.36 139.2384 116.736z" fill="#7C38BC" p-id="21349"></path><path d="M625.28 665.0368l-189.5168 62.592v18.7392l303.6928 45.3376 25.0624-9.9328z" fill="#7C38BC" p-id="21350"></path><path d="M1024 660.2496L720.2816 614.912l-105.1136 41.6512 134.1696 112.4864zM615.168 656.5632l-179.4048 71.0656 303.6928 45.3376 9.8816-3.9168z" fill="#7C38BC" p-id="21351"></path><path d="M736.1024 791.7056l-267.9296-40.4992s-22.016 5.8624-27.6992 33.9712c-5.7088 28.1344 16.5632 44.6464 16.5632 44.6464l283.6224 41.0112a93.312 93.312 0 0 1-10.8032-44.5184c0.0256-12.4672 2.2784-24.2688 6.2464-34.6112z" fill="#CCCCCC" p-id="21352"></path><path d="M435.2 793.2416c0-22.1184 12.2112-40.3456 27.9296-42.7776l-26.8544-22.9376c-14.5152 13.3888-24.0384 36.0704-24.0384 61.7728 0 23.3984 5.12 44.0064 17.4592 57.6512 1.0752 1.1776 6.0672 3.7376 6.0672 3.7376l36.0704 5.376-8.6784-20.0192C447.4112 833.5872 435.2 815.36 435.2 793.2416z" fill="#8CC152" p-id="21353"></path><path d="M1014.4512 763.7248a93.2608 93.2608 0 0 1-10.8032-44.4928c0-12.5184 2.2528-24.32 6.2464-34.6624l-246.3488 96.4096 65.8176 55.1936 185.088-72.448z" fill="#B2B2B2" p-id="21354"></path><path d="M763.5456 780.9536l-27.4432 10.7264a96.512 96.512 0 0 0-6.2464 34.6624c0 16.6912 4.0192 32.0768 10.8032 44.4928l88.704-34.7136-65.8176-55.168z" fill="#B2B2B2" p-id="21355"></path><path d="M426.0864 639.7184h58.2912v85.2736h-58.2912z" fill="#D3971E" p-id="21356"></path><path d="M1020.3648 678.9888v-18.7392l-303.6928-26.5728-92.416 30.5152 139.1104 116.608z" fill="#E8B321" p-id="21357"></path><path d="M624.256 664.192l-192.1024 63.4368v18.7392l303.6928 45.3376 27.52-10.9056z" fill="#E8B321" p-id="21358"></path><path d="M1020.3648 660.2496L716.672 614.912l-102.656 40.6784 134.1696 112.4864zM614.016 655.5904l-181.8624 72.0384 303.6928 45.3376 12.3392-4.8896z" fill="#EFF2F4" p-id="21359"></path><path d="M735.8464 687.3856l284.5184-112.6912v-18.7392l-303.6928-26.5728-181.6576 59.9808 98.7648 82.816zM432.1536 642.0736l201.6256 30.1056-98.7648-82.816-102.8608 33.9712z" fill="#E8B321" p-id="21360"></path><path d="M735.8464 668.6464l284.5184-112.6912-303.6928-45.3376-187.1616 74.1376 77.056 64.6144zM606.5664 649.3696l-77.056-64.6144-97.3568 38.5792z" fill="#F9C82D" p-id="21361"></path><path d="M726.272 722.048c0-12.5184 2.2528-24.2944 6.2464-34.6624l-98.2784-14.848 97.536 81.7664a96.128 96.128 0 0 1-5.504-32.256z" fill="#CCCCCC" p-id="21362"></path><path d="M634.24 672.5376l-169.6512-25.6256s-22.016 5.8624-27.7248 33.9712c-5.6832 28.1088 16.5632 44.6464 16.5632 44.6464l283.648 41.0112a82.7136 82.7136 0 0 1-5.2992-12.2624l-97.536-81.7408z" fill="#CCCCCC" p-id="21363"></path><path d="M431.616 688.9472c0-22.1184 12.2112-40.3456 27.9296-42.8032l-26.88-22.912c-14.4896 13.3888-24.0384 36.0448-24.0384 61.7472 0 23.3984 5.1456 44.0064 17.4848 57.6768 1.0752 1.1776 6.0672 3.7376 6.0672 3.7376l36.0704 5.376-8.6784-20.0448c-15.744-2.4576-27.9552-20.6592-27.9552-42.7776z" fill="#E8B321" p-id="21364"></path><path d="M1010.8416 659.4304a93.2608 93.2608 0 0 1-10.8032-44.4928c0-12.5184 2.2528-24.2944 6.2464-34.6624l-273.792 107.136a96.512 96.512 0 0 0-6.2464 34.6624c0 11.5712 2.048 22.4768 5.4784 32.2304l11.6736 9.7792 267.4432-104.6528z" fill="#B2B2B2" p-id="21365"></path><path d="M743.424 764.0832l-11.6736-9.7792c1.5104 4.3008 3.2256 8.4736 5.2992 12.2624l6.3744-2.4832z" fill="#B2B2B2" p-id="21366"></path><path d="M482.2272 602.9824v-57.472l-43.8016 57.472zM482.2272 517.7088H449.536l32.6912 27.4176z" fill="#422F2C" p-id="21367"></path><path d="M449.536 517.7088h-25.6v85.2736h14.4896l43.8016-57.472v-0.384z" fill="#422F2C" p-id="21368"></path><path d="M430.0032 614.0672l8.576-11.2896-8.576 2.8416z" fill="#E8B321" p-id="21369"></path><path d="M733.696 669.696l284.544-112.7168v-18.7392l-303.7184-26.5728-195.2768 64.4864 89.2928 74.8544z" fill="#5D453D" p-id="21370"></path><path d="M430.0032 614.0672v10.2912l178.5344 26.6496-89.2928-74.8544-80.6656 26.624z" fill="#5D453D" p-id="21371"></path><path d="M435.7632 606.4896l3.4304-4.5056-9.1904 3.6352zM733.696 650.9568l284.544-112.7168-303.7184-45.3376-200.0384 79.2576 66.8672 56.064z" fill="#EFF2F4" p-id="21372"></path><path d="M435.7632 606.4896l145.5872 21.7344-66.8672-56.064-75.2896 29.824z" fill="#EFF2F4" p-id="21373"></path><path d="M494.3104 529.664l50.4832-66.2528-114.7904 37.9136 27.1872 22.8096z" fill="#5D453D" p-id="21374"></path><path d="M457.1904 524.1344l-27.1872-22.8096v18.7392zM1018.24 452.6848v-18.7648l-303.7184-26.5472-169.728 56.0384-50.4832 66.2528 239.3856 35.712z" fill="#5D453D" p-id="21375"></path><path d="M1018.24 433.92l-303.7184-45.312-161.4592 63.9744-45.9264 60.2624 226.56 33.792zM553.0624 452.5824l-123.0592 48.7424 77.1328 11.52z" fill="#6A524E" p-id="21376"></path><path d="M494.2848 529.7152l-31.8464-4.8128s-1.2032 0.3584-2.9696 1.1264l22.9632 19.2512 11.8528-15.5648z" fill="#CCCCCC" p-id="21377"></path><path d="M459.4688 526.0288c-6.144 2.6624-20.3264 10.9824-24.7296 32.8448a44.16 44.16 0 0 0 9.1392 36.992l38.5536-50.5856-22.9632-19.2512z" fill="#CCCCCC" p-id="21378"></path><path d="M734.8992 644.5568a93.312 93.312 0 0 1-10.8032-44.5184c0-12.5184 2.2528-24.2944 6.2464-34.6624l-236.0832-35.6864-11.8528 15.5904 90.4704 75.8528 162.0224 23.424z" fill="#CCCCCC" p-id="21379"></path><path d="M482.4064 545.28l-38.5536 50.5856c3.8656 4.9408 7.424 7.6544 7.424 7.6544l121.6 17.5872-90.4704-75.8272z" fill="#CCCCCC" p-id="21380"></path><path d="M457.3696 524.1344l-26.8544-22.912-0.2816 0.3072 27.008 22.656z" fill="#5D453D" p-id="21381"></path><path d="M457.2416 524.1856l-27.008-22.6304c-14.336 13.4144-23.7568 35.8912-23.7568 61.4144 0 23.3984 5.12 44.0064 17.4592 57.6768l0.6656 0.512 16.4864-21.6576a49.2032 49.2032 0 0 1-11.648-32.5632c0-22.0672 12.16-40.2432 27.8016-42.752zM441.1136 599.4752l-16.4864 21.6576c1.6384 1.28 5.376 3.2256 5.376 3.2256l36.0704 5.376-8.6784-20.0448c-6.2976-0.9728-11.6992-4.9408-16.2816-10.2144z" fill="#5D453D" p-id="21382"></path><path d="M1008.6912 537.4208a93.2608 93.2608 0 0 1-10.8032-44.4928c0-12.5184 2.2528-24.2944 6.2464-34.6624L730.368 565.4016a96.512 96.512 0 0 0-6.2464 34.6624c0 16.6912 4.0192 32.0768 10.8032 44.4928l273.7664-107.136z" fill="#B2B2B2" p-id="21383"></path><path d="M732.3136 436.3264a7.3216 7.3216 0 0 1-2.432 0.8448l-26.6496 4.1216c-3.5328 0.5376-5.7856 1.2288-6.3488 1.92-0.8448 1.024 2.2272 1.8688 7.8336 2.048l26.4448 0.9472a8.9344 8.9344 0 0 1 2.4064 0.4608l4.48 4.7104c0.3328 0.3584 1.1008 0.64 2.2272 0.8448a49.1008 49.1008 0 0 0 15.9488-0.8192l19.4816-4.5312a30.208 30.208 0 0 1 3.712-0.4352l26.5728-0.64c4.5312-0.1024 8.6784-0.5888 11.4432-1.3568 2.7904-0.768 3.4304-1.5872 1.7152-2.2784l-10.496-4.1984c-0.3584-0.1536-0.128-0.6144 0.4096-0.8192l16.8448-6.1696c3.0464-1.1264 3.5328-2.1248 1.3056-2.7904-2.2528-0.6656-6.6816-0.768-12.1088-0.3072l-31.3088 2.7904c-1.024 0.1024-3.4304 0.0512-4.096-0.0512l-21.5296-3.6864a48.5888 48.5888 0 0 0-13.5424-0.128c-4.6848 0.5888-7.7568 1.6128-8.4736 2.8416l-3.84 6.6816z" fill="#422F2C" p-id="21384"></path></svg>