<svg t="1591945993232" class="icon" viewBox="0 0 1024 1024" version="1.1" xmlns="http://www.w3.org/2000/svg" p-id="15050" width="200" height="200"><path d="M920.424 772.714l-3.624-1.062c-52.934-14.218-70.84-27.876-94.402-36.812-83.622-31.874-105.372-54.81-110.934-65.652-0.188-0.406-0.344-0.812-0.532-1.218l-0.688-97.092L512 568.626l-198.244 2.25-0.688 97.092c-0.188 0.406-0.344 0.812-0.562 1.218-5.562 10.842-27.312 33.78-110.902 65.652-23.562 8.938-41.468 22.594-94.404 36.812l-3.624 1.062c-48.186 15.938-80.622 60.624-80.622 111.058v140.214h978.096v-140.214c-0.002-50.432-32.438-95.118-80.626-111.056z" fill="#5D9CEC" p-id="15051"></path><path d="M610.434 1023.988h-193.932l27.312-191.994h135.746z" fill="#8CC153" p-id="15052"></path><path d="M579.874 831.994h-135.748l-38.78-213.338h213.306z" fill="#A0D468" p-id="15053"></path><path d="M404.284 789.528l100.654-80.218-191.558-126.214-0.876 86.092zM619.496 789.528l-100.654-80.218 191.558-126.214 0.876 86.092z" fill="#F5F7FA" p-id="15054"></path><path d="M787.084 382.976c0 178.744-170.4 343.238-275.084 343.238S236.914 561.72 236.914 382.976c0-178.746 123.154-296.68 275.086-296.68s275.084 117.936 275.084 296.68z" fill="#EAC6BB" p-id="15055"></path><path d="M682.182 56.83c-46.78-42.374-209.306-103.248-360.052 0-118.872 81.404-106.872 286.742-106.872 286.742s155.996 39.406 334.646-62.654c115.496-65.998 155.746 1.124 176.464 59.53 20.124 56.904 60.714 42.53 60.714 42.53s44.814-190.622-104.9-326.148z" fill="#434A54" p-id="15056"></path><path d="M633.778 253.636c16.216 0 29.78 4.186 41.186 11.156 22.25-88.56 72.31-103.154 84.154-105.372a324.686 324.686 0 0 0-21.56-38.186c-29.002 9.874-80.376 40.186-103.78 132.402z" fill="#656D78" p-id="15057"></path><path d="M641.62 895.992h213.308v127.996H641.62z" fill="#F5F7FA" p-id="15058"></path><path d="M769.618 874.648h-42.686c-11.782 0-21.312 9.562-21.312 21.344s9.532 21.312 21.312 21.312h42.686c11.748 0 21.31-9.532 21.31-21.312s-9.562-21.344-21.31-21.344z" fill="#434A54" p-id="15059"></path></svg>